<svg xmlns="http://www.w3.org/2000/svg" viewBox="0 0 255.67 108.33"><defs><style>.cls-1{fill:#fff;}</style></defs><g id="レイヤー_2" data-name="レイヤー 2"><g id="レイヤー_1-2" data-name="レイヤー 1"><circle class="cls-1" cx="63.13" cy="21.04" r="20.41"/><path class="cls-1" d="M212.84,3.9V38.13a1.68,1.68,0,0,1-1.69,1.69h-5.48a7.18,7.18,0,0,1-4.09-1.27,7.46,7.46,0,0,0-.7-.56,11.62,11.62,0,0,0-13.65,0c-.23.17-.45.35-.67.53a7.08,7.08,0,0,1-4.1,1.29H177a1.68,1.68,0,0,1-1.69-1.63V3.9A1.69,1.69,0,0,1,177,2.26h5.48a7.16,7.16,0,0,1,4.08,1.28c.23.2.47.39.71.56a11.57,11.57,0,0,0,6.81,2.21,11.58,11.58,0,0,0,6.82-2.21c.24-.17.48-.36.71-.56a7.16,7.16,0,0,1,4.08-1.28h5.48A1.69,1.69,0,0,1,212.84,3.9Z"/><path class="cls-1" d="M255.67,38a1.79,1.79,0,0,1-1.79,1.79h-34A1.79,1.79,0,0,1,218.12,38a1.71,1.71,0,0,1,.15-.71l.08-.17L235.27,3.3l0-.09h0a1.8,1.8,0,0,1,3.15,0h0l0,.09,16.91,33.83.11.21A1.73,1.73,0,0,1,255.67,38Z"/><path class="cls-1" d="M167.28,33.76a1.82,1.82,0,0,1-.45,1.2h0l-.1.11a20.42,20.42,0,1,1,0-28.08l.12.13a1.85,1.85,0,0,1-.52,2.82h0a12.62,12.62,0,0,0-.06,22.15h0l.15.09h0A1.82,1.82,0,0,1,167.28,33.76Z"/><path class="cls-1" d="M40.82,27.91a2,2,0,0,1-.11.65h0l0,.08h0A21,21,0,0,1,26,41.5a21.33,21.33,0,0,1-5,.59,21,21,0,1,1,15.3-35.5h0l.08.09a1.86,1.86,0,0,1,.48,1.26A1.9,1.9,0,0,1,36,9.54l-.22.12a13,13,0,0,0-6.25,14.82,1.58,1.58,0,0,0,.09.31A1.89,1.89,0,0,0,31.4,26h7.52A1.9,1.9,0,0,1,40.82,27.91Z"/><path class="cls-1" d="M30.87,104.94a6.77,6.77,0,0,1-2.05.36,6.38,6.38,0,0,1-3-.69,4.83,4.83,0,0,1-2-1.9,5.29,5.29,0,0,1-.71-2.73,6.19,6.19,0,0,1,.76-3.16,5,5,0,0,1,2-2,6,6,0,0,1,2.81-.67,7.44,7.44,0,0,1,1.79.21A6.52,6.52,0,0,1,32,95l-.57,1.62a4.67,4.67,0,0,0-1.19-.47,5.22,5.22,0,0,0-1.3-.19,4.09,4.09,0,0,0-2.95,1,3.84,3.84,0,0,0-1.07,2.89,3.74,3.74,0,0,0,.5,2,3.37,3.37,0,0,0,1.41,1.31,4.57,4.57,0,0,0,2.07.46,4.65,4.65,0,0,0,1-.1,2.74,2.74,0,0,0,.81-.28v-1.81H28.63V99.7h3.8v4.47A4.15,4.15,0,0,1,30.87,104.94Z"/><path class="cls-1" d="M36.35,97a5.7,5.7,0,0,1,2-2,5.37,5.37,0,0,1,2.79-.76,5.31,5.31,0,0,1,2.78.76,5.81,5.81,0,0,1,2,2,5.42,5.42,0,0,1,0,5.55,5.59,5.59,0,0,1-2,2,5.56,5.56,0,0,1-5.58,0,5.51,5.51,0,0,1-2-2,5.41,5.41,0,0,1-.75-2.8A5.36,5.36,0,0,1,36.35,97Zm1.56,4.72a4,4,0,0,0,1.38,1.41,3.8,3.8,0,0,0,1.93.52,3.54,3.54,0,0,0,1.89-.52,3.78,3.78,0,0,0,1.35-1.4,4,4,0,0,0,.5-2,3.9,3.9,0,0,0-.51-2,3.84,3.84,0,0,0-1.38-1.42,3.57,3.57,0,0,0-1.9-.52,3.63,3.63,0,0,0-1.91.52,3.86,3.86,0,0,0-1.36,1.42,4,4,0,0,0-.5,2A3.84,3.84,0,0,0,37.91,101.69Z"/><path class="cls-1" d="M56.79,94.28V96H54v9.22H52.24V96H49.5V94.28Z"/><path class="cls-1" d="M67,105a5.28,5.28,0,0,1-1.85.32,5.71,5.71,0,0,1-3-.75,5,5,0,0,1-1.94-2,5.58,5.58,0,0,1-.69-2.74,6.08,6.08,0,0,1,.69-2.92,5,5,0,0,1,1.9-2,5.35,5.35,0,0,1,2.77-.72,6,6,0,0,1,1.78.25,6.35,6.35,0,0,1,1.44.65l-.69,1.63a4.24,4.24,0,0,0-2.47-.85,3.34,3.34,0,0,0-1.78.51,3.76,3.76,0,0,0-1.33,1.41,3.92,3.92,0,0,0-.49,1.95,4.37,4.37,0,0,0,.45,2,3.4,3.4,0,0,0,1.31,1.4,3.77,3.77,0,0,0,1.95.5,4,4,0,0,0,1.43-.24,3.79,3.79,0,0,0,1.07-.61l.73,1.55A5.76,5.76,0,0,1,67,105Z"/><path class="cls-1" d="M80.66,105.17H78.91v-4.64H73.55v4.64H71.8V94.28h1.75v4.59h5.36V94.28h1.75Z"/><path class="cls-1" d="M90.45,102.61h-4l-1,2.56H83.72l4.82-11.34h.1l4.82,11.34h-2Zm-.58-1.49-1.36-3.44-1.41,3.44Z"/><path class="cls-1" d="M98.62,99.45v1.46h-2.8V99.45Z"/><path class="cls-1" d="M109.38,104.94a6.71,6.71,0,0,1-2,.36,6.39,6.39,0,0,1-3-.69,4.89,4.89,0,0,1-2-1.9,5.29,5.29,0,0,1-.71-2.73,6.29,6.29,0,0,1,.76-3.16,5,5,0,0,1,2-2,5.88,5.88,0,0,1,2.8-.67,7.38,7.38,0,0,1,1.79.21,6.52,6.52,0,0,1,1.49.58l-.57,1.62a4.53,4.53,0,0,0-1.19-.47,5.09,5.09,0,0,0-1.29-.19,4.08,4.08,0,0,0-3,1,4.28,4.28,0,0,0-.58,4.85,3.5,3.5,0,0,0,1.41,1.31,4.57,4.57,0,0,0,2.07.46,4.65,4.65,0,0,0,1-.1,2.65,2.65,0,0,0,.81-.28v-1.81h-2V99.7H111v4.47A4.29,4.29,0,0,1,109.38,104.94Z"/><path class="cls-1" d="M114.87,97a5.67,5.67,0,0,1,2-2,5.38,5.38,0,0,1,2.8-.76,5.3,5.3,0,0,1,2.77.76,5.75,5.75,0,0,1,2.05,2,5.42,5.42,0,0,1,.76,2.77,5.26,5.26,0,0,1-.76,2.78,5.59,5.59,0,0,1-2,2,5.55,5.55,0,0,1-8.35-4.81A5.36,5.36,0,0,1,114.87,97Zm1.55,4.72a3.91,3.91,0,0,0,1.39,1.41,3.74,3.74,0,0,0,1.92.52,3.54,3.54,0,0,0,1.89-.52,3.71,3.71,0,0,0,1.35-1.4,3.89,3.89,0,0,0,.5-2,4,4,0,0,0-.5-2,3.84,3.84,0,0,0-1.38-1.42,3.62,3.62,0,0,0-1.9-.52,3.58,3.58,0,0,0-1.91.52,3.71,3.71,0,0,0-1.36,1.42,3.9,3.9,0,0,0-.51,2A3.84,3.84,0,0,0,116.42,101.69Z"/><path class="cls-1" d="M135.3,94.28V96h-2.81v9.22h-1.74V96H128V94.28Z"/><path class="cls-1" d="M145.47,105a5.24,5.24,0,0,1-1.85.32,5.65,5.65,0,0,1-3-.75,5,5,0,0,1-1.95-2,5.68,5.68,0,0,1-.68-2.74,6.2,6.2,0,0,1,.68-2.92,5.07,5.07,0,0,1,1.9-2,5.36,5.36,0,0,1,2.78-.72,5.87,5.87,0,0,1,1.77.25,6.43,6.43,0,0,1,1.45.65l-.69,1.63a4.26,4.26,0,0,0-2.47-.85,3.35,3.35,0,0,0-1.79.51,3.76,3.76,0,0,0-1.33,1.41,3.92,3.92,0,0,0-.49,1.95,4.25,4.25,0,0,0,.46,2,3.32,3.32,0,0,0,1.3,1.4,3.77,3.77,0,0,0,1.95.5,4,4,0,0,0,1.43-.24,3.66,3.66,0,0,0,1.07-.61l.74,1.55A5.86,5.86,0,0,1,145.47,105Z"/><path class="cls-1" d="M159.17,105.17h-1.75v-4.64h-5.35v4.64h-1.76V94.28h1.76v4.59h5.35V94.28h1.75Z"/><path class="cls-1" d="M169,102.61h-4L164,105.17h-1.72l4.82-11.34h.1L172,105.17h-2Zm-.58-1.49L167,97.68l-1.41,3.44Z"/><path class="cls-1" d="M181,94.28h3.1a6.45,6.45,0,0,1,3.39.81,4.83,4.83,0,0,1,2,2.08,6.11,6.11,0,0,1,.61,2.71,5.29,5.29,0,0,1-.74,2.79,5.1,5.1,0,0,1-2,1.85,5.71,5.71,0,0,1-2.71.65H181Zm3.31,9.22a4.63,4.63,0,0,0,2.06-.44,3.22,3.22,0,0,0,1.39-1.27,3.89,3.89,0,0,0,.5-2,4,4,0,0,0-.54-2.15,3.44,3.44,0,0,0-1.39-1.27,4,4,0,0,0-1.75-.4h-1.82v7.56Z"/><path class="cls-1" d="M197.73,103.41l.77,1.24a4.76,4.76,0,0,1-1.1.5,3.47,3.47,0,0,1-1.12.19,4,4,0,0,1-1.89-.43,3,3,0,0,1-1.23-1.2,3.59,3.59,0,0,1-.42-1.75,3.19,3.19,0,0,1,.47-1.71,3.6,3.6,0,0,1,1.3-1.24,3.73,3.73,0,0,1,1.8-.45,3.12,3.12,0,0,1,2.14.75,3.8,3.8,0,0,1,1.14,2.14l-4.88,1.65a1.74,1.74,0,0,0,.67.59,2.05,2.05,0,0,0,.93.21A2.49,2.49,0,0,0,197.73,103.41Zm-2.85-3a2.08,2.08,0,0,0-.5,1.44,1.47,1.47,0,0,0,0,.25l3.32-1.18a1.92,1.92,0,0,0-.57-.77,1.55,1.55,0,0,0-1-.29A1.68,1.68,0,0,0,194.88,100.43Z"/><path class="cls-1" d="M203,105.05a2.85,2.85,0,0,1-1.07-.74l.7-1a2.33,2.33,0,0,0,1.62.78,1.47,1.47,0,0,0,.74-.17.55.55,0,0,0,.29-.52.56.56,0,0,0-.3-.53,2.83,2.83,0,0,0-.66-.3l-.48-.14a2.56,2.56,0,0,1-1.22-.74,1.76,1.76,0,0,1-.41-1.15,1.93,1.93,0,0,1,.27-1,1.89,1.89,0,0,1,.79-.74,2.7,2.7,0,0,1,1.29-.28,4.22,4.22,0,0,1,1.25.16,3.11,3.11,0,0,1,1,.53l-.64,1a2,2,0,0,0-.66-.4,1.87,1.87,0,0,0-.69-.15,1.13,1.13,0,0,0-.65.18.53.53,0,0,0-.25.46.55.55,0,0,0,.25.52,4.39,4.39,0,0,0,.87.36l.33.11a2.85,2.85,0,0,1,1.17.66,1.54,1.54,0,0,1,.42,1.12,2,2,0,0,1-.67,1.55,2.71,2.71,0,0,1-1.91.62A3.76,3.76,0,0,1,203,105.05Z"/><path class="cls-1" d="M210.19,96a1,1,0,0,1,.67-.27.92.92,0,0,1,.65.27.83.83,0,0,1,0,1.26,1,1,0,0,1-.65.26,1,1,0,0,1-.67-.26.81.81,0,0,1,0-1.26Zm1.45,2.89v6.33H210V98.84Z"/><path class="cls-1" d="M222,98.84v6.37a2.88,2.88,0,0,1-.47,1.59,3.3,3.3,0,0,1-1.32,1.12,4.22,4.22,0,0,1-1.91.41,4,4,0,0,1-1.72-.32,5.82,5.82,0,0,1-1.39-.93l1-1.16a4.58,4.58,0,0,0,1,.7,2.53,2.53,0,0,0,1.12.25,2.28,2.28,0,0,0,1.48-.46,1.56,1.56,0,0,0,.57-1.24v-1.06a2.3,2.3,0,0,1-1,.89,3.19,3.19,0,0,1-1.52.34,3.08,3.08,0,0,1-1.6-.44,3.31,3.31,0,0,1-1.17-1.21,3.46,3.46,0,0,1-.43-1.72,3.33,3.33,0,0,1,.46-1.74A3.25,3.25,0,0,1,216.29,99a3.17,3.17,0,0,1,1.61-.44,3.7,3.7,0,0,1,1.44.27,2.3,2.3,0,0,1,1,.73l.14-.72Zm-2.42,4.76a1.84,1.84,0,0,0,.74-1v-1.38a1.85,1.85,0,0,0-.75-1,2.21,2.21,0,0,0-1.25-.36,1.94,1.94,0,0,0-1.43.56,1.88,1.88,0,0,0-.58,1.43,2,2,0,0,0,2,2A2.17,2.17,0,0,0,219.58,103.6Z"/><path class="cls-1" d="M231.11,99.1a1.84,1.84,0,0,1,.6,1.38v4.69H230v-4.1a1.2,1.2,0,0,0-.29-.77,1,1,0,0,0-.79-.3,1.54,1.54,0,0,0-1.28.66,2.79,2.79,0,0,0-.5,1.7v2.81H225.5V98.84H227l.12,1.13a2.54,2.54,0,0,1,1-1,3,3,0,0,1,1.5-.37A2.17,2.17,0,0,1,231.11,99.1Z"/><path class="cls-1" d="M126.3,5V25.42a4.43,4.43,0,0,1-2.89,4.16q-.31.08-.63.18a11.61,11.61,0,0,0-7.56,7.59v0l-.15.52v0a4.43,4.43,0,0,1-4,2.9h-7A4.43,4.43,0,0,1,100,38c-.06-.23-.12-.45-.19-.68h0a11.59,11.59,0,0,0-7.53-7.51q-.32-.11-.63-.18a4.43,4.43,0,0,1-2.89-4.16V5a1.69,1.69,0,0,1,1.69-1.69H124.6A1.69,1.69,0,0,1,126.3,5"/><circle class="cls-1" cx="63.13" cy="67.58" r="20.41"/><path class="cls-1" d="M212.84,50.44V84.67a1.68,1.68,0,0,1-1.69,1.69h-5.48a7.18,7.18,0,0,1-4.09-1.27c-.22-.2-.46-.38-.7-.56a11.62,11.62,0,0,0-13.65,0c-.23.17-.45.35-.67.53a7.08,7.08,0,0,1-4.1,1.29H177a1.68,1.68,0,0,1-1.69-1.63V50.44A1.68,1.68,0,0,1,177,48.81h5.48a7.08,7.08,0,0,1,4.08,1.28c.23.19.47.38.71.55a11.61,11.61,0,0,0,13.63,0c.24-.17.48-.36.71-.55a7.08,7.08,0,0,1,4.08-1.28h5.48A1.68,1.68,0,0,1,212.84,50.44Z"/><path class="cls-1" d="M255.67,84.57a1.79,1.79,0,0,1-1.79,1.79h-34a1.79,1.79,0,0,1-1.79-1.79,1.71,1.71,0,0,1,.15-.71l.08-.17,16.92-33.85,0-.09h0a1.79,1.79,0,0,1,3.15,0h0l0,.09,16.91,33.83.11.21A1.77,1.77,0,0,1,255.67,84.57Z"/><path class="cls-1" d="M167.28,80.3a1.86,1.86,0,0,1-.45,1.21h0l-.1.11a20.42,20.42,0,1,1,0-28.08l.12.13a1.85,1.85,0,0,1-.52,2.82h0a12.62,12.62,0,0,0-.06,22.15h0l.15.09h0A1.84,1.84,0,0,1,167.28,80.3Z"/><path class="cls-1" d="M40.82,74.45a2,2,0,0,1-.11.65h0l0,.08h0a21,21,0,1,1-4.33-22.06h0l.08.09a1.86,1.86,0,0,1,.48,1.26,1.9,1.9,0,0,1-.89,1.6l-.22.12A13,13,0,0,0,29.54,71a1.92,1.92,0,0,0,.09.32,1.9,1.9,0,0,0,1.77,1.21h7.52A1.9,1.9,0,0,1,40.82,74.45Z"/><path class="cls-1" d="M126.3,51.5V72a4.43,4.43,0,0,1-2.89,4.16q-.31.07-.63.18a11.61,11.61,0,0,0-7.56,7.59s0,0,0,0l-.15.53v0a4.43,4.43,0,0,1-4,2.9h-7a4.43,4.43,0,0,1-4-2.86c-.06-.23-.12-.45-.19-.67v0a11.61,11.61,0,0,0-7.53-7.51q-.32-.1-.63-.18A4.43,4.43,0,0,1,88.74,72V51.5a1.69,1.69,0,0,1,1.69-1.69H124.6a1.69,1.69,0,0,1,1.7,1.69"/></g></g></svg>