<svg id="レイヤー_1" data-name="レイヤー 1" xmlns="http://www.w3.org/2000/svg" viewBox="0 0 297.24 140.7"><defs><style>.cls-1 { fill: #fff; }
</style></defs><circle class="cls-1" cx="85.89" cy="38.73" r="20.41"/><path class="cls-1" d="M235.59,21.59V55.82a1.68,1.68,0,0,1-1.69,1.69h-5.48a7.18,7.18,0,0,1-4.09-1.27c-.22-.2-.46-.38-.7-.56a11.61,11.61,0,0,0-13.64,0c-.24.17-.46.35-.68.53a7.06,7.06,0,0,1-4.1,1.29h-5.48A1.68,1.68,0,0,1,198,55.88V21.59A1.68,1.68,0,0,1,199.73,20h5.48a7.12,7.12,0,0,1,4.09,1.28c.22.19.46.38.7.55a11.61,11.61,0,0,0,13.63,0c.24-.17.48-.36.71-.55A7.11,7.11,0,0,1,228.42,20h5.48A1.68,1.68,0,0,1,235.59,21.59Z"/><path class="cls-1" d="M278.43,55.72a1.8,1.8,0,0,1-1.8,1.79h-34a1.79,1.79,0,0,1-1.79-1.79A1.71,1.71,0,0,1,241,55l.08-.17L258,21l.05-.09h0a1.81,1.81,0,0,1,1.58-.94,1.78,1.78,0,0,1,1.57.94h0l0,.09,16.91,33.83.11.21A1.77,1.77,0,0,1,278.43,55.72Z"/><path class="cls-1" d="M190,51.45a1.86,1.86,0,0,1-.45,1.21h0l-.1.11a20.42,20.42,0,1,1,0-28.08l.12.13A1.81,1.81,0,0,1,190,26a1.86,1.86,0,0,1-1,1.62h0A12.62,12.62,0,0,0,189,49.79h0l.16.09h0A1.84,1.84,0,0,1,190,51.45Z"/><path class="cls-1" d="M63.57,45.6a2,2,0,0,1-.11.65h0l0,.08h0a21,21,0,1,1-4.33-22.06h0l.08.09a1.89,1.89,0,0,1-.41,2.86l-.21.12a13,13,0,0,0-6.26,14.82,1.88,1.88,0,0,0,1.87,1.53h7.52A1.9,1.9,0,0,1,63.57,45.6Z"/><path class="cls-1" d="M53.62,122.63a6.71,6.71,0,0,1-2,.36,6.39,6.39,0,0,1-3-.69,4.89,4.89,0,0,1-2-1.9,5.29,5.29,0,0,1-.71-2.73,6.29,6.29,0,0,1,.76-3.16,5,5,0,0,1,2-2,5.88,5.88,0,0,1,2.8-.67,7.38,7.38,0,0,1,1.79.21,6.52,6.52,0,0,1,1.49.58l-.57,1.62a4.53,4.53,0,0,0-1.19-.47,5.09,5.09,0,0,0-1.29-.19,4.12,4.12,0,0,0-3,1,4.28,4.28,0,0,0-.58,4.85,3.43,3.43,0,0,0,1.41,1.31,4.44,4.44,0,0,0,2.07.46,4.65,4.65,0,0,0,1-.1,3.07,3.07,0,0,0,.81-.27v-1.82h-2v-1.67h3.8v4.47A4.15,4.15,0,0,1,53.62,122.63Z"/><path class="cls-1" d="M59.1,114.66a5.78,5.78,0,0,1,2-2,5.37,5.37,0,0,1,2.79-.76,5.31,5.31,0,0,1,2.78.76,5.65,5.65,0,0,1,2,2,5.43,5.43,0,0,1,0,5.56,5.64,5.64,0,0,1-2,2,5.56,5.56,0,0,1-5.58,0,5.59,5.59,0,0,1-2-2,5.5,5.5,0,0,1-.74-2.8A5.45,5.45,0,0,1,59.1,114.66Zm1.56,4.72a3.91,3.91,0,0,0,1.39,1.41,3.74,3.74,0,0,0,1.92.52,3.54,3.54,0,0,0,1.89-.52,3.71,3.71,0,0,0,1.35-1.4,4,4,0,0,0,.5-2,3.9,3.9,0,0,0-.51-2,3.81,3.81,0,0,0-1.37-1.42,3.63,3.63,0,0,0-1.91-.52,3.57,3.57,0,0,0-1.9.52,3.71,3.71,0,0,0-1.36,1.42,3.9,3.9,0,0,0-.51,2A3.84,3.84,0,0,0,60.66,119.38Z"/><path class="cls-1" d="M79.54,112v1.67H76.73v9.23H75v-9.23H72.25V112Z"/><path class="cls-1" d="M89.71,122.67a5.24,5.24,0,0,1-1.85.32,5.71,5.71,0,0,1-3-.75,5,5,0,0,1-1.94-2,5.57,5.57,0,0,1-.68-2.74,6.08,6.08,0,0,1,.68-2.92,5,5,0,0,1,1.9-2,5.36,5.36,0,0,1,2.78-.72,6,6,0,0,1,1.77.25,6.16,6.16,0,0,1,1.44.65l-.68,1.63a4.26,4.26,0,0,0-2.47-.85,3.35,3.35,0,0,0-1.79.51,3.83,3.83,0,0,0-1.33,1.41,3.92,3.92,0,0,0-.49,2,4.25,4.25,0,0,0,.46,2,3.32,3.32,0,0,0,1.3,1.4,3.77,3.77,0,0,0,2,.5,4,4,0,0,0,1.43-.24,3.79,3.79,0,0,0,1.07-.61L91,122A5.76,5.76,0,0,1,89.71,122.67Z"/><path class="cls-1" d="M103.41,122.87h-1.75v-4.64H96.3v4.64H94.55V112H96.3v4.59h5.36V112h1.75Z"/><path class="cls-1" d="M113.2,120.31h-4l-1,2.56h-1.72l4.82-11.35h.1l4.82,11.35h-2Zm-.58-1.5-1.36-3.44-1.41,3.44Z"/><path class="cls-1" d="M121.38,117.14v1.46h-2.8v-1.46Z"/><path class="cls-1" d="M132.13,122.63a6.66,6.66,0,0,1-2,.36,6.39,6.39,0,0,1-3-.69,5,5,0,0,1-2-1.9,5.28,5.28,0,0,1-.7-2.73,6.29,6.29,0,0,1,.75-3.16,5,5,0,0,1,2-2,5.91,5.91,0,0,1,2.8-.67,7.38,7.38,0,0,1,1.79.21,6.34,6.34,0,0,1,1.49.58l-.57,1.62a4.39,4.39,0,0,0-1.19-.47,5.09,5.09,0,0,0-1.29-.19,4.12,4.12,0,0,0-3,1,4.28,4.28,0,0,0-.58,4.85,3.5,3.5,0,0,0,1.41,1.31,4.47,4.47,0,0,0,2.07.46,4.74,4.74,0,0,0,1-.1,3,3,0,0,0,.8-.27v-1.82h-2v-1.67h3.8v4.47A4.13,4.13,0,0,1,132.13,122.63Z"/><path class="cls-1" d="M137.62,114.66a5.62,5.62,0,0,1,2-2,5.46,5.46,0,0,1,5.56,0,5.75,5.75,0,0,1,2,2,5.32,5.32,0,0,1,.76,2.77,5.4,5.4,0,0,1-.75,2.79,5.75,5.75,0,0,1-2.05,2,5.55,5.55,0,0,1-8.35-4.81A5.36,5.36,0,0,1,137.62,114.66Zm1.56,4.72a4,4,0,0,0,1.38,1.41,3.74,3.74,0,0,0,1.92.52,3.54,3.54,0,0,0,1.89-.52,3.71,3.71,0,0,0,1.35-1.4,4,4,0,0,0,0-3.92,3.84,3.84,0,0,0-1.38-1.42,3.75,3.75,0,0,0-3.81,0,3.79,3.79,0,0,0-1.36,1.42,3.89,3.89,0,0,0-.5,2A3.84,3.84,0,0,0,139.18,119.38Z"/><path class="cls-1" d="M158.05,112v1.67h-2.81v9.23H153.5v-9.23h-2.74V112Z"/><path class="cls-1" d="M168.22,122.67a5.24,5.24,0,0,1-1.85.32,5.68,5.68,0,0,1-3-.75,5,5,0,0,1-1.95-2,5.68,5.68,0,0,1-.68-2.74,6.2,6.2,0,0,1,.68-2.92,5.14,5.14,0,0,1,1.9-2,5.38,5.38,0,0,1,2.78-.72,5.87,5.87,0,0,1,1.77.25,6.24,6.24,0,0,1,1.45.65l-.69,1.63a4.24,4.24,0,0,0-2.47-.85,3.35,3.35,0,0,0-1.79.51,3.81,3.81,0,0,0-1.32,1.41,3.93,3.93,0,0,0-.5,2,4.25,4.25,0,0,0,.46,2,3.32,3.32,0,0,0,1.3,1.4,3.77,3.77,0,0,0,1.95.5,4,4,0,0,0,1.43-.24,3.66,3.66,0,0,0,1.07-.61l.74,1.55A5.65,5.65,0,0,1,168.22,122.67Z"/><path class="cls-1" d="M181.93,122.87h-1.76v-4.64h-5.35v4.64h-1.76V112h1.76v4.59h5.35V112h1.76Z"/><path class="cls-1" d="M191.72,120.31h-4l-1.05,2.56H185l4.82-11.35h.1l4.82,11.35h-2Zm-.59-1.5-1.36-3.44-1.41,3.44Z"/><path class="cls-1" d="M203.77,112h3.1a6.43,6.43,0,0,1,3.38.81,4.89,4.89,0,0,1,2,2.08,6.11,6.11,0,0,1,.61,2.71,5.2,5.2,0,0,1-.74,2.79,5,5,0,0,1-2,1.85,5.69,5.69,0,0,1-2.71.66h-3.62Zm3.3,9.22a4.63,4.63,0,0,0,2.06-.44,3.11,3.11,0,0,0,1.39-1.27,3.9,3.9,0,0,0,.51-2,4,4,0,0,0-.55-2.15,3.44,3.44,0,0,0-1.39-1.27,4.18,4.18,0,0,0-1.75-.4h-1.82v7.56Z"/><path class="cls-1" d="M220.49,121.1l.76,1.24a4.69,4.69,0,0,1-1.09.5A3.57,3.57,0,0,1,219,123a3.91,3.91,0,0,1-1.89-.43,3.09,3.09,0,0,1-1.23-1.2,3.57,3.57,0,0,1-.42-1.75,3.2,3.2,0,0,1,.48-1.71,3.35,3.35,0,0,1,1.3-1.23,3.59,3.59,0,0,1,1.79-.46,3.06,3.06,0,0,1,2.14.76,3.74,3.74,0,0,1,1.14,2.13l-4.88,1.65a1.77,1.77,0,0,0,.68.59,2,2,0,0,0,.92.21A2.52,2.52,0,0,0,220.49,121.1Zm-2.85-3a2,2,0,0,0-.51,1.44,1.47,1.47,0,0,0,0,.25l3.32-1.18a1.89,1.89,0,0,0-.57-.76,1.5,1.5,0,0,0-1-.3A1.64,1.64,0,0,0,217.64,118.12Z"/><path class="cls-1" d="M225.7,122.74a2.85,2.85,0,0,1-1.07-.74l.71-1a2.29,2.29,0,0,0,1.61.78,1.38,1.38,0,0,0,.74-.17.62.62,0,0,0,0-1,3.41,3.41,0,0,0-.67-.3l-.47-.14a2.55,2.55,0,0,1-1.23-.74,1.73,1.73,0,0,1-.4-1.15,1.92,1.92,0,0,1,.26-1,2,2,0,0,1,.79-.74,2.74,2.74,0,0,1,1.3-.28,4.19,4.19,0,0,1,1.24.16,3.11,3.11,0,0,1,1,.53l-.64,1a2,2,0,0,0-.65-.4,2,2,0,0,0-.7-.15,1.08,1.08,0,0,0-.64.18.54.54,0,0,0-.26.46.56.56,0,0,0,.26.52,4.52,4.52,0,0,0,.86.36l.33.11a2.76,2.76,0,0,1,1.17.67,1.5,1.5,0,0,1,.42,1.11,2,2,0,0,1-.66,1.55,2.74,2.74,0,0,1-1.91.62A3.81,3.81,0,0,1,225.7,122.74Z"/><path class="cls-1" d="M232.94,113.64a1,1,0,0,1,.67-.27.92.92,0,0,1,.65.27.81.81,0,0,1,0,1.26,1,1,0,0,1-.65.26,1,1,0,0,1-.67-.26.81.81,0,0,1,0-1.26Zm1.45,2.89v6.34h-1.68v-6.34Z"/><path class="cls-1" d="M244.75,116.53v6.37a2.85,2.85,0,0,1-.47,1.59,3.24,3.24,0,0,1-1.32,1.12,4.22,4.22,0,0,1-1.91.41,4,4,0,0,1-1.72-.32,5.82,5.82,0,0,1-1.39-.93l1-1.16a4.3,4.3,0,0,0,1,.7,2.53,2.53,0,0,0,1.12.25,2.27,2.27,0,0,0,1.49-.46,1.58,1.58,0,0,0,.56-1.23V121.8a2.3,2.3,0,0,1-1,.89,3.19,3.19,0,0,1-1.52.34,3.11,3.11,0,0,1-1.6-.44,3.24,3.24,0,0,1-1.17-1.21,3.46,3.46,0,0,1-.43-1.72,3.44,3.44,0,0,1,1.67-3,3.17,3.17,0,0,1,1.61-.44,3.52,3.52,0,0,1,1.44.28,2.21,2.21,0,0,1,1,.72l.14-.72Zm-2.42,4.76a1.84,1.84,0,0,0,.74-1v-1.38a1.92,1.92,0,0,0-.74-1,2.22,2.22,0,0,0-1.26-.36,1.94,1.94,0,0,0-1.43.56,1.88,1.88,0,0,0-.58,1.43,2,2,0,0,0,.27,1,2,2,0,0,0,.73.73,1.93,1.93,0,0,0,1,.27A2.17,2.17,0,0,0,242.33,121.29Z"/><path class="cls-1" d="M253.86,116.8a1.81,1.81,0,0,1,.61,1.37v4.7h-1.68v-4.1a1.2,1.2,0,0,0-.29-.78,1.08,1.08,0,0,0-.79-.3,1.55,1.55,0,0,0-1.28.66,2.79,2.79,0,0,0-.5,1.7v2.82h-1.68v-6.34h1.51l.13,1.13a2.52,2.52,0,0,1,1-1,3.09,3.09,0,0,1,1.5-.37A2.11,2.11,0,0,1,253.86,116.8Z"/><path class="cls-1" d="M149.05,22.65V43.11a4.43,4.43,0,0,1-2.89,4.16q-.32.07-.63.18A11.63,11.63,0,0,0,138,55v0a5.26,5.26,0,0,0-.15.53s0,0,0,0a4.43,4.43,0,0,1-4.05,2.9h-7a4.43,4.43,0,0,1-4-2.86c0-.23-.12-.45-.19-.67v0A11.65,11.65,0,0,0,115,47.45q-.32-.11-.63-.18a4.43,4.43,0,0,1-2.89-4.16V22.65a1.69,1.69,0,0,1,1.7-1.69h34.17a1.69,1.69,0,0,1,1.69,1.69"/><circle class="cls-1" cx="85.89" cy="85.28" r="20.41"/><path class="cls-1" d="M235.59,68.13v34.23a1.68,1.68,0,0,1-1.69,1.69h-5.48a7.18,7.18,0,0,1-4.09-1.27c-.22-.2-.46-.38-.7-.56a11.61,11.61,0,0,0-13.64,0c-.24.17-.46.35-.68.53a7.06,7.06,0,0,1-4.1,1.29h-5.48a1.68,1.68,0,0,1-1.69-1.63V68.13a1.68,1.68,0,0,1,1.69-1.63h5.48a7.12,7.12,0,0,1,4.09,1.28c.22.19.46.38.7.56a11.66,11.66,0,0,0,13.63,0l.71-.56a7.11,7.11,0,0,1,4.08-1.28h5.48A1.68,1.68,0,0,1,235.59,68.13Z"/><path class="cls-1" d="M278.43,102.26a1.8,1.8,0,0,1-1.8,1.79h-34a1.79,1.79,0,0,1-1.79-1.79,1.71,1.71,0,0,1,.15-.71l.08-.17L258,67.53l.05-.09h0a1.81,1.81,0,0,1,1.58-.94,1.78,1.78,0,0,1,1.57.94h0l0,.09,16.91,33.83.11.21A1.77,1.77,0,0,1,278.43,102.26Z"/><path class="cls-1" d="M190,98a1.86,1.86,0,0,1-.45,1.21h0l-.1.11a20.42,20.42,0,1,1,0-28.08l.12.13a1.81,1.81,0,0,1,.44,1.2,1.84,1.84,0,0,1-1,1.62h0A12.62,12.62,0,0,0,189,96.33h0l.16.09h0A1.84,1.84,0,0,1,190,98Z"/><path class="cls-1" d="M63.57,92.14a2,2,0,0,1-.11.65h0l0,.08h0a21,21,0,1,1-4.33-22.06h0l.08.08a1.86,1.86,0,0,1,.48,1.26,1.9,1.9,0,0,1-.89,1.61l-.21.11a13,13,0,0,0-6.26,14.82,1.88,1.88,0,0,0,1.87,1.53h7.52A1.9,1.9,0,0,1,63.57,92.14Z"/><path class="cls-1" d="M149.05,69.19V89.65a4.43,4.43,0,0,1-2.89,4.16q-.32.07-.63.18a11.62,11.62,0,0,0-7.56,7.6h0a5.26,5.26,0,0,0-.15.53s0,0,0,0a4.43,4.43,0,0,1-4.05,2.9h-7a4.43,4.43,0,0,1-4-2.86c0-.23-.12-.45-.19-.67v0A11.65,11.65,0,0,0,115,94q-.32-.1-.63-.18a4.43,4.43,0,0,1-2.89-4.16V69.19a1.7,1.7,0,0,1,1.7-1.69h34.17a1.69,1.69,0,0,1,1.69,1.69"/></svg>